# xmcd
#
# Track frame offsets:
#	150
#	4575
#	11099
#	68383
#	75826
#	80788
#	85482
#	91592
#	129527
#	136499
#	141767
#	147883
#	156732
#	225697
#	234977
#
# Disc length: 3219 seconds
#
# Revision: 0
# Processed by: cddbd v1.5.1PL0 Copyright (c) Steve Scherf et al.
# Submitted via: EasyCDDAExtractor 4.6.9.1
#
DISCID=b70c910f
DTITLE=Ross Nickerson - Scruggs Style Instruction CD2
DYEAR=1900
DGENRE=Bluegrass
TTITLE0=Ground Speed-fast
TTITLE1=Ground Speed-slow
TTITLE2=Ground Speed-instruction
TTITLE3=Ground Speed-rhythm slow
TTITLE4=Ground Speed-rhythm fast
TTITLE5=Sally Goodin-fast
TTITLE6=Sally Goodin-slow
TTITLE7=Sally Goodin-instruction
TTITLE8=Sally Goodin-rhythm slow
TTITLE9=Sally Goodin-rhythm fast
TTITLE10=Foggy Mountain Breakdown-fast
TTITLE11=Foggy Mountain Breakdown-slow
TTITLE12=Foggy Mountain Breakdown-instruction
TTITLE13=Foggy Mountain Breakdown-rhythm slow
TTITLE14=Foggy Mountain Breakdown-rhythm fast
EXTD=
EXTT0=
EXTT1=
EXTT2=
EXTT3=
EXTT4=
EXTT5=
EXTT6=
EXTT7=
EXTT8=
EXTT9=
EXTT10=
EXTT11=
EXTT12=
EXTT13=
EXTT14=
PLAYORDER=
